<svg width="14" height="14" viewBox="0 0 14 14" fill="none" xmlns="http://www.w3.org/2000/svg">
<g id="vuesax/linear/eye-slash">
<g id="eye-slash">
<path id="Vector" d="M8.47579 5.52412L5.52412 8.47579C5.14495 8.09662 4.91162 7.57745 4.91162 6.99995C4.91162 5.84495 5.84495 4.91162 6.99995 4.91162C7.57745 4.91162 8.09662 5.14495 8.47579 5.52412Z" stroke="#9CA8C0" stroke-width="1.25" stroke-linecap="round" stroke-linejoin="round"/>
<path id="Vector_2" d="M10.3949 3.36578C9.37407 2.59578 8.20741 2.17578 6.99991 2.17578C4.94074 2.17578 3.02158 3.38911 1.68574 5.48911C1.16074 6.31161 1.16074 7.69411 1.68574 8.51661C2.14658 9.23995 2.68324 9.86411 3.26658 10.3658" stroke="#9CA8C0" stroke-width="1.25" stroke-linecap="round" stroke-linejoin="round"/>
<path id="Vector_3" d="M4.91162 11.3924C5.57662 11.6724 6.28245 11.8241 6.99995 11.8241C9.05912 11.8241 10.9783 10.6107 12.3141 8.51073C12.8391 7.68823 12.8391 6.30573 12.3141 5.48323C12.1216 5.1799 11.9116 4.89407 11.6958 4.62573" stroke="#9CA8C0" stroke-width="1.5" stroke-linecap="round" stroke-linejoin="round"/>
<path id="Vector_4" d="M9.04734 7.40845C8.89568 8.23095 8.22484 8.90178 7.40234 9.05345" stroke="#9CA8C0" stroke-width="1.5" stroke-linecap="round" stroke-linejoin="round"/>
<path id="Vector_5" d="M5.524 8.47583L1.1665 12.8333" stroke="#9CA8C0" stroke-width="1.5" stroke-linecap="round" stroke-linejoin="round"/>
<path id="Vector_6" d="M12.8336 1.16675L8.47607 5.52425" stroke="#9CA8C0" stroke-width="1.5" stroke-linecap="round" stroke-linejoin="round"/>
</g>
</g>
</svg>
