<svg width="17" height="16" viewBox="0 0 17 16" fill="none" xmlns="http://www.w3.org/2000/svg">
<g id="vuesax/bold/archive-book">
<g id="archive-book">
<path id="Vector" d="M10.4533 1.66683V5.60016C10.4533 5.8935 10.1066 6.04016 9.8933 5.84683L8.72663 4.7735C8.59996 4.6535 8.39996 4.6535 8.2733 4.7735L7.10663 5.84016C6.8933 6.04016 6.54663 5.88683 6.54663 5.60016V1.66683C6.54663 1.48016 6.6933 1.3335 6.87996 1.3335H10.12C10.3066 1.3335 10.4533 1.48016 10.4533 1.66683Z" fill="#9CA8C0"/>
<path id="Vector_2" d="M11.82 1.37342C11.6267 1.34675 11.4533 1.51342 11.4533 1.70675V5.72009C11.4533 6.22675 11.1533 6.68676 10.6867 6.89342C10.22 7.09342 9.68 7.00675 9.30667 6.66009L8.72667 6.12675C8.6 6.00675 8.40667 6.00675 8.27333 6.12675L7.69333 6.66009C7.45333 6.88675 7.14 7.00009 6.82667 7.00009C6.65333 7.00009 6.48 6.96676 6.31333 6.89342C5.84667 6.68676 5.54667 6.22675 5.54667 5.72009V1.70675C5.54667 1.51342 5.37333 1.34675 5.18 1.37342C3.31333 1.60675 2.5 2.86675 2.5 4.66675V11.3334C2.5 13.3334 3.5 14.6668 5.83333 14.6668H11.1667C13.5 14.6668 14.5 13.3334 14.5 11.3334V4.66675C14.5 2.86675 13.6867 1.60675 11.82 1.37342ZM12.1667 12.5001H6.5C6.22667 12.5001 6 12.2734 6 12.0001C6 11.7268 6.22667 11.5001 6.5 11.5001H12.1667C12.44 11.5001 12.6667 11.7268 12.6667 12.0001C12.6667 12.2734 12.44 12.5001 12.1667 12.5001ZM12.1667 9.83342H9.33333C9.06 9.83342 8.83333 9.60676 8.83333 9.33342C8.83333 9.06009 9.06 8.83342 9.33333 8.83342H12.1667C12.44 8.83342 12.6667 9.06009 12.6667 9.33342C12.6667 9.60676 12.44 9.83342 12.1667 9.83342Z" fill="#9CA8C0"/>
</g>
</g>
</svg>
