<?xml version="1.0" encoding="UTF-8"?>
<!DOCTYPE svg PUBLIC "-//W3C//DTD SVG 1.1//EN" "http://www.w3.org/Graphics/SVG/1.1/DTD/svg11.dtd">
<svg xmlns="http://www.w3.org/2000/svg" version="1.1" width="24px" height="24px" style="shape-rendering:geometricPrecision; text-rendering:geometricPrecision; image-rendering:optimizeQuality; fill-rule:evenodd; clip-rule:evenodd" xmlns:xlink="http://www.w3.org/1999/xlink">
<g><path style="opacity:0.71" fill="#9ba7bf" d="M 6.5,0.5 C 9.50472,1.72373 12.5047,1.72373 15.5,0.5C 17.4219,1.71101 19.2552,3.04434 21,4.5C 21.6667,9.5 21.6667,14.5 21,19.5C 20.6924,20.3081 20.1924,20.9747 19.5,21.5C 3.37036,26.5376 -2.46297,20.871 2,4.5C 3.66668,3.26683 5.16668,1.9335 6.5,0.5 Z M 4.5,4.5 C 8.83787,4.6096 13.1712,4.6096 17.5,4.5C 18.2868,5.24208 18.9535,6.07542 19.5,7C 14.1667,7.66667 8.83333,7.66667 3.5,7C 4.25244,6.32924 4.58577,5.4959 4.5,4.5 Z M 3.5,9.5 C 8.83333,9.5 14.1667,9.5 19.5,9.5C 19.6646,12.5184 19.498,15.5184 19,18.5C 18.5,19 18,19.5 17.5,20C 13.5,20.6667 9.5,20.6667 5.5,20C 5,19.5 4.5,19 4,18.5C 3.50204,15.5184 3.33537,12.5184 3.5,9.5 Z"/></g>
<g><path style="opacity:0.413" fill="#99a7bf" d="M 10.5,11.5 C 11.6935,11.9704 12.3601,12.9704 12.5,14.5C 12.1667,15.5 11.8333,16.5 11.5,17.5C 10.5344,15.604 10.2011,13.604 10.5,11.5 Z"/></g>
<g><path style="opacity:0.47" fill="#9ba6bf" d="M 14.5,11.5 C 16.3079,12.9179 16.9746,14.9179 16.5,17.5C 15.325,17.719 14.325,17.3857 13.5,16.5C 13.5786,14.8717 13.9119,13.2051 14.5,11.5 Z"/></g>
<g><path style="opacity:0.418" fill="#9ba6bf" d="M 6.5,11.5 C 7.99525,11.4148 8.99525,12.0815 9.5,13.5C 8.16667,14.5 8.16667,15.5 9.5,16.5C 8.67504,17.3857 7.67504,17.719 6.5,17.5C 6.5,15.5 6.5,13.5 6.5,11.5 Z"/></g>
</svg>
