<svg width="17" height="16" viewBox="0 0 17 16" fill="none" xmlns="http://www.w3.org/2000/svg">
<g id="vuesax/bold/direct">
<g id="direct">
<path id="Vector" d="M14.7 8.15332H12.38C11.7267 8.15332 11.1467 8.51332 10.8534 9.09999L10.2934 10.2067C10.16 10.4733 9.89337 10.64 9.60004 10.64H7.41337C7.20671 10.64 6.91337 10.5933 6.72004 10.2067L6.16004 9.10665C5.86671 8.52665 5.28004 8.15999 4.63337 8.15999H2.30004C2.04004 8.15999 1.83337 8.36665 1.83337 8.62665V10.8C1.83337 13.22 3.28671 14.6667 5.71337 14.6667H11.3C13.5867 14.6667 14.9934 13.4133 15.1667 11.1867V8.61999C15.1667 8.36665 14.96 8.15332 14.7 8.15332Z" fill="#9CA8C0"/>
<path id="Vector_2" d="M11.2934 1.3335H5.70671C3.28004 1.3335 1.83337 2.78016 1.83337 5.20683V7.2335C1.98004 7.18016 2.14004 7.1535 2.30004 7.1535H4.63337C5.66671 7.1535 6.59337 7.72683 7.05337 8.6535L7.55337 9.6335H9.46004L9.96004 8.64683C10.42 7.72683 11.3467 7.1535 12.38 7.1535H14.7C14.86 7.1535 15.02 7.18016 15.1667 7.2335V5.20683C15.1667 2.78016 13.72 1.3335 11.2934 1.3335ZM7.46671 3.60683H9.53337C9.78671 3.60683 10 3.8135 10 4.06683C10 4.32683 9.78671 4.5335 9.53337 4.5335H7.46671C7.21337 4.5335 7.00004 4.32683 7.00004 4.06683C7.00004 3.8135 7.21337 3.60683 7.46671 3.60683ZM10.0534 6.3935H6.94671C6.69337 6.3935 6.48671 6.18683 6.48671 5.9335C6.48671 5.6735 6.69337 5.46683 6.94671 5.46683H10.0534C10.3067 5.46683 10.5134 5.6735 10.5134 5.9335C10.5134 6.18683 10.3067 6.3935 10.0534 6.3935Z" fill="#9CA8C0"/>
</g>
</g>
</svg>
