<svg width="18" height="18" viewBox="0 0 18 18" fill="none" xmlns="http://www.w3.org/2000/svg">
<g id="vuesax/linear/gallery-add">
<g id="gallery-add">
<path id="Vector" d="M6.75 7.5C7.57843 7.5 8.25 6.82843 8.25 6C8.25 5.17157 7.57843 4.5 6.75 4.5C5.92157 4.5 5.25 5.17157 5.25 6C5.25 6.82843 5.92157 7.5 6.75 7.5Z" stroke="#9CA8C0" stroke-linecap="round" stroke-linejoin="round"/>
<path id="Vector_2" d="M9.75 1.5H6.75C3 1.5 1.5 3 1.5 6.75V11.25C1.5 15 3 16.5 6.75 16.5H11.25C15 16.5 16.5 15 16.5 11.25V7.5" stroke="#9CA8C0" stroke-linecap="round" stroke-linejoin="round"/>
<path id="Vector_3" d="M11.8125 3.75H15.9375" stroke="#9CA8C0" stroke-linecap="round"/>
<path id="Vector_4" d="M13.875 5.8125V1.6875" stroke="#9CA8C0" stroke-linecap="round"/>
<path id="Vector_5" d="M2.00244 14.2124L5.69994 11.7299C6.29244 11.3324 7.14744 11.3774 7.67994 11.8349L7.92744 12.0524C8.51244 12.5549 9.45744 12.5549 10.0424 12.0524L13.1624 9.37492C13.7474 8.87242 14.6924 8.87242 15.2774 9.37492L16.4999 10.4249" stroke="#9CA8C0" stroke-linecap="round" stroke-linejoin="round"/>
</g>
</g>
</svg>
