<svg width="13" height="14" viewBox="0 0 13 14" fill="none" xmlns="http://www.w3.org/2000/svg">
<g id="Group">
<path id="Vector" fill-rule="evenodd" clip-rule="evenodd" d="M10.0847 10.5215C10.0164 10.5845 9.9268 10.6194 9.83386 10.619C9.74283 10.6182 9.65509 10.5849 9.58651 10.525C9.51827 10.5868 9.42949 10.621 9.33742 10.621C9.24536 10.621 9.15658 10.5868 9.08834 10.525L8.84271 10.7706C8.89522 10.8347 8.92952 10.9117 8.94202 10.9936C8.94202 11.1922 8.86886 11.1922 8.86886 11.4395C8.86886 12.0579 9.58651 12.2582 9.58651 12.2582C9.58651 12.2582 10.3059 12.0579 10.3059 11.4395H10.3076C10.3076 11.1922 10.2328 11.1922 10.2328 10.9936C10.2461 10.912 10.2803 10.8352 10.332 10.7706L10.0847 10.5215ZM6.49991 9.47112L5.80316 10.1679L5.97734 10.8646H7.02247L7.19666 10.1679L6.49991 9.47112ZM4.62737 8.71349L5.06284 10.1958C5.06719 10.2102 5.07528 10.2232 5.08629 10.2335C5.0973 10.2438 5.11083 10.251 5.12552 10.2543C5.1402 10.2577 5.15552 10.2571 5.16991 10.2527C5.18429 10.2482 5.19724 10.24 5.20744 10.2289L6.49987 8.94859L7.79583 10.2323C7.80555 10.2435 7.81811 10.252 7.83219 10.2567C7.84627 10.2615 7.86137 10.2624 7.87593 10.2594C7.89049 10.2564 7.90398 10.2496 7.91501 10.2396C7.92603 10.2296 7.9342 10.2169 7.93866 10.2027L8.43336 8.71518C8.55732 8.71929 8.68025 8.73918 8.79918 8.77437C9.77463 9.05314 10.7501 9.47112 11.5165 10.0983C11.6862 10.2312 11.8243 10.4001 11.9207 10.5929C12.0171 10.7857 12.0694 10.9975 12.0739 11.213V14H7.19666L7.01026 11.213H5.99649L5.80316 14H0.925903V11.213C0.930397 10.9975 0.982738 10.7857 1.07914 10.5929C1.17554 10.4001 1.31359 10.2312 1.4833 10.0983C2.3076 9.50632 3.22644 9.05866 4.20063 8.77437C4.33993 8.73709 4.4832 8.71664 4.62737 8.71349ZM3.76865 4.55213C4.59175 5.11832 5.56703 5.42196 6.56607 5.42307C7.51509 5.42318 8.44424 5.15115 9.24335 4.63922C9.2712 4.79679 9.28577 4.95642 9.28691 5.11643C9.28554 5.50551 9.20273 5.89 9.04379 6.24514C8.88485 6.60027 8.65331 6.9182 8.36407 7.17845C8.07484 7.43869 7.73431 7.6355 7.36442 7.75619C6.99453 7.87687 6.60347 7.91878 6.2164 7.8792C5.82934 7.83961 5.45485 7.71943 5.11704 7.52637C4.77923 7.33331 4.48559 7.07166 4.25502 6.75825C4.02445 6.44485 3.86205 6.08664 3.77828 5.70668C3.69451 5.32672 3.69123 4.93343 3.76865 4.55213ZM6.15153 1.64141L5.92333 1.85916C5.96928 1.9159 5.99934 1.98383 6.01042 2.05601C6.01042 2.23019 5.94599 2.23019 5.94599 2.44964C5.94599 2.99659 6.58003 3.17077 6.58003 3.17077C6.58003 3.17077 7.21408 2.99489 7.21408 2.44964H7.22104C7.22104 2.23019 7.15658 2.23019 7.15309 2.05601C7.16459 1.98396 7.1946 1.91613 7.24019 1.85916L7.02247 1.64141C6.96472 1.69531 6.88895 1.72576 6.80996 1.72681C6.72939 1.72648 6.65158 1.69745 6.59048 1.64492C6.5298 1.69813 6.45172 1.72726 6.37101 1.72681C6.28961 1.72752 6.21104 1.69695 6.15153 1.64141ZM6.38491 0.439445C6.44704 0.406114 6.51646 0.388672 6.58697 0.388672C6.65748 0.388672 6.72689 0.406114 6.78903 0.439445C7.18445 0.64857 8.15469 1.11012 8.5466 1.25995C9.07919 1.44387 9.62323 1.59283 10.1752 1.70587L10.1683 1.71105C10.2419 1.72742 10.3099 1.76327 10.3649 1.81485C10.42 1.86643 10.4603 1.93185 10.4814 2.00428C10.5026 2.07672 10.504 2.15351 10.4853 2.22664C10.4667 2.29977 10.4288 2.36656 10.3756 2.42004L9.67881 3.11679V3.32409C9.67853 3.4505 9.64647 3.57482 9.5856 3.6856C9.52473 3.79639 9.43699 3.89011 9.33044 3.95813L8.96989 4.19151C8.23217 4.66698 7.37021 4.91343 6.49265 4.89979C5.61509 4.88615 4.7612 4.61304 4.03862 4.11487L3.81393 3.95983C3.71353 3.89052 3.63143 3.79789 3.5747 3.68989C3.51796 3.58188 3.48828 3.46172 3.48819 3.33972V3.11158L2.79144 2.41483C2.73819 2.36135 2.70027 2.29456 2.68164 2.22143C2.66301 2.1483 2.66436 2.0715 2.68554 1.99907C2.70671 1.92663 2.74695 1.86121 2.80204 1.80963C2.85714 1.75805 2.92506 1.72221 2.99874 1.70584C3.55074 1.59279 4.09478 1.44384 4.62737 1.25992C5.01928 1.11012 5.98952 0.64857 6.38491 0.439445Z" fill="#9CA8C0"/>
</g>
</svg>
