<svg width="17" height="16" viewBox="0 0 17 16" fill="none" xmlns="http://www.w3.org/2000/svg">
<g id="vuesax/bold/map">
<path id="Vector" d="M5.58661 2.37995C5.7062 2.31472 5.83328 2.41508 5.83328 2.5513V11.5732C5.83328 11.7311 5.72521 11.8644 5.58661 11.94L4.01994 12.8333C2.92661 13.46 2.02661 12.94 2.02661 11.6733V5.18662C2.02661 4.76662 2.32661 4.24662 2.69994 4.03329L5.58661 2.37995Z" fill="#9CA8C0"/>
<path id="Vector_2" d="M10.2219 4.02236C10.3922 4.10672 10.5 4.28035 10.5 4.47043V12.8704C10.5 13.2389 10.115 13.4808 9.78298 13.3209L7.28298 12.1164C7.10998 12.0331 7 11.858 7 11.666V3.23233C7 2.86147 7.38956 2.61968 7.7219 2.78427L10.2219 4.02236Z" fill="#9CA8C0"/>
<path id="Vector_3" d="M15.1667 4.32655V10.8132C15.1667 11.2332 14.8667 11.7532 14.4934 11.9665L12.4154 13.1575C12.082 13.3485 11.6667 13.1079 11.6667 12.7237V4.31687C11.6667 4.13735 11.763 3.97162 11.9189 3.88263L13.1734 3.16655C14.2667 2.53988 15.1667 3.05988 15.1667 4.32655Z" fill="#9CA8C0"/>
</g>
</svg>
