<svg width="24" height="24" viewBox="0 0 24 24" fill="none" xmlns="http://www.w3.org/2000/svg">
<g id="linear/notification">
<g id="notification">
<path id="Subtract" fill-rule="evenodd" clip-rule="evenodd" d="M18.77 9.58799V11.7999C18.77 12.0148 18.8186 12.3293 18.9108 12.6653C19.0018 12.9973 19.1194 13.2923 19.2264 13.4796L20.3725 15.3831L20.3731 15.384C21.2786 16.8933 20.5547 18.8594 18.8865 19.4116C14.4226 20.9028 9.60617 20.9027 5.1423 19.4113L5.13951 19.4103C4.29711 19.1252 3.66535 18.5357 3.38288 17.7728C3.10008 17.0091 3.19629 16.1495 3.65732 15.3832L3.65744 15.3831L4.80575 13.4759L4.80651 13.4746C4.91602 13.2905 5.03597 12.9965 5.12854 12.6631C5.22139 12.3286 5.26996 12.0145 5.26996 11.7999V8.90991C5.26996 5.1857 8.29575 2.15991 12.02 2.15991C12.9742 2.15991 13.8836 2.36028 14.7083 2.72105C14.261 3.03428 13.8807 3.43672 13.5933 3.90255C13.096 3.74498 12.5674 3.65991 12.02 3.65991C9.12418 3.65991 6.76996 6.01413 6.76996 8.90991V11.7999C6.76996 12.1953 6.68854 12.6513 6.57388 13.0643C6.45917 13.4775 6.29446 13.908 6.09417 14.244L6.09249 14.2468L6.09249 14.2468L4.9426 16.1566L4.94249 16.1568C4.69363 16.5705 4.67986 16.9558 4.78954 17.252C4.89947 17.5488 5.16231 17.8341 5.61907 17.989C9.77442 19.377 14.257 19.3769 18.4123 17.9886L18.4146 17.9878C19.1653 17.7396 19.5009 16.8467 19.0872 16.1563L19.0868 16.1558L17.9374 14.2468L17.9302 14.2348L17.9303 14.2347C17.7382 13.9017 17.5772 13.4743 17.4642 13.062C17.3513 12.6506 17.27 12.1951 17.27 11.7999V9.99094C17.8057 9.95524 18.3125 9.81406 18.77 9.58799Z" fill="white"/>
<circle id="Ellipse 217" cx="17" cy="6" r="3" fill="#00D3FF"/>
<path id="Vector" d="M13.87 3.19994C13.56 3.10994 13.24 3.03994 12.91 2.99994C11.95 2.87994 11.03 2.94994 10.17 3.19994C10.46 2.45994 11.18 1.93994 12.02 1.93994C12.86 1.93994 13.58 2.45994 13.87 3.19994Z" stroke="white" stroke-width="1.5" stroke-miterlimit="10" stroke-linecap="round" stroke-linejoin="round"/>
<path id="Vector_2" d="M15.02 19.0601C15.02 20.7101 13.67 22.0601 12.02 22.0601C11.2 22.0601 10.44 21.7201 9.90002 21.1801C9.36002 20.6401 9.02002 19.8801 9.02002 19.0601" stroke="white" stroke-width="1.5" stroke-miterlimit="10"/>
</g>
</g>
</svg>
