<svg width="12" height="16" viewBox="0 0 12 16" fill="none" xmlns="http://www.w3.org/2000/svg">
<g id="Group 875">
<path id="Vector" d="M5.45 7.1525C5.375 7.145 5.285 7.145 5.2025 7.1525C3.4175 7.0925 2 5.63 2 3.83C2 1.9925 3.485 0.5 5.33 0.5C7.1675 0.5 8.66 1.9925 8.66 3.83C8.6525 5.63 7.235 7.0925 5.45 7.1525Z" stroke="#9CA8C0" stroke-linecap="round" stroke-linejoin="round"/>
<path id="Vector_2" d="M1.86125 9.77938C0.04625 10.9944 0.04625 12.9744 1.86125 14.1819C3.92375 15.5619 7.30625 15.5619 9.36875 14.1819C11.1838 12.9669 11.1838 10.9869 9.36875 9.77938C7.31375 8.40687 3.93125 8.40687 1.86125 9.77938Z" stroke="#9CA8C0" stroke-linecap="round" stroke-linejoin="round"/>
</g>
</svg>
